<svg xmlns="http://www.w3.org/2000/svg" width="1024" height="1024" viewBox="0 0 1024 1024"><path d="M98 0C88 0 76 3 69 12l-11 6c-8 3-14 11-19 20l-4 6C22 57 21 86 23 94v18l2 5c8 14 16 16 19 17s5 1 7 3l18 7h1l2 1 4 1a5595 5595 0 0 0 29 22l19 21 73 76 2 3a1938 1938 0 0 0 64 61c10 8 19 15 25 22 33 46 29 118 27 186l-2 59-4-3c-23-14-48-30-81-30-9 0-18 1-26 3-20 5-29 16-38 33v1c-13 28-2 48 6 63l5 9c24 52 63 104 97 150l35 50v10c0 13 0 23 10 41 2 5 6 9 12 10l10 4c-16 9-36 25-29 57 0 3 2 6 4 9 13 14 28 21 46 21 21 0 40-10 57-19l20-9 11-4c16-5 39-13 41-38l1-9h14c21-2 34-15 44-25l9-9c7-3 14-10 30-30l26-37c59-32 114-68 155-105 9-7 40-39 43-64 4-40-24-67-47-72-8-2-17-3-27-3-34 0-69 12-104 23-24 9-48 16-69 19 7-16 15-41 26-80l1-1c9-33 51-148 67-188 101-72 177-136 241-201a302 302 0 0 0 91-42c13-20 14-27 10-42a114 114 0 0 1-2-24c-2-25-32-44-46-44-6 0-11 3-15 7l-12 12-11 10-3 2-3 3c-2-7-7-11-10-14l-2-2c-4-6-12-13-28-13h-1c-10 0-18 7-19 17v6l-5 25-6 30-13 11-9 7-19 14a666 666 0 0 1-169 103c-12 6-27 9-43 12a657 657 0 0 0-12 1c7-9 18-24 13-45l-2-6-4-23a19 19 0 0 0-1-23c-18-21-53-44-88-44-13 0-24 2-35 8l-4 3-2 1c-13 7-41 23-50 46-4 9-4 19-3 28 0 8 0 17-3 23s-3 12 0 18l2 3c-32-18-91-32-111-37-38-45-80-79-103-96l2-3c5-11 11-26 5-49a19 19 0 0 0-27-12h-2c-4 1-11 2-17 7l-3-5-2-3-1-5-9-14-2-5c-1-3-5-11-13-15-4-2-9-3-14-3Zm-4 40 5 7 2 5v1c1 3 3 9 8 16l2 3c2 4 5 11 11 15 7 5 16 7 25 5l-5 14v10c0 6 3 11 7 14 45 33 82 68 110 102 3 4 7 6 11 7 41 8 103 28 113 38 5 6 13 9 21 7h2c9-1 17-4 28-13 3-4 6-9 6-14 0-15-5-25-9-32 3-11 2-21 2-30l1-13c4-11 26-23 33-27l8-5c4-2 9-3 15-3 18 0 38 11 52 24a121 121 0 0 0 5 39l1 5c1 3 0 5-6 14-8 11-25 34-2 60 5 6 14 8 21 6 9-4 19-6 31-8 16-3 33-7 50-14a596 596 0 0 0 193-120l3-2 9-7 17-14c6-7 10-12 11-23 0-7 2-15 4-24a49 49 0 0 0 10 11c4 3 9 4 14 4 11 0 18-7 22-10l1-1 4-3 8-5 12-12 6-5 4 5 3 28 1 4-4 8c-9 5-37 19-75 30-4 0-7 2-9 5-64 66-142 130-244 203-3 2-5 5-7 9-14 35-60 160-71 196v2c-22 74-31 91-33 94a19 19 0 0 0 9 32c7 2 15 2 23 2 29 0 60-10 92-21s64-21 92-21l19 1c3 1 19 11 17 32-1 7-17 29-30 40-40 35-94 71-152 102-3 1-6 4-8 7a409 409 0 0 1-44 57c-7 5-13 11-18 17-9 8-14 13-20 14-6 0-12-3-19-7-9-5-21-11-35-11a19 19 0 0 0-19 25c5 13 13 21 18 26 6 6 6 6 6 9-2 2-10 5-16 7a294 294 0 0 0-36 15c-14 7-28 14-40 14-4 0-8 0-14-5 1-4 5-8 19-15 9-4 18-9 25-17 5-7 5-15 1-22-5-10-29-21-44-27-2-7-2-10-2-17v-19l-4-9-39-55c-34-47-70-95-93-144l-6-11c-7-13-9-19-5-29 6-11 7-12 12-13h1l17-2c22 0 41 12 61 24 11 7 23 15 36 20a19 19 0 0 0 26-18c-1-27 0-57 1-88 3-75 7-153-33-209-9-12-21-22-32-31l-18-15-43-43-2-2-72-76a854 854 0 0 0-23-24l-16-12-16-12c-5-4-10-5-16-7h-1l-11-4-9-4V86l2-16 9-12 4-6c5-2 13-6 19-12zm320 741c-13 0-24 2-35 5a19 19 0 0 0-8 32c7 7 13 18 18 30 7 14 14 28 25 40a19 19 0 0 0 32-10c2-2 10-4 14-6l16-5c7-3 11-10 11-17 0-6 3-9 13-16 7-4 13-8 19-15a19 19 0 0 0-16-31h-11l-39-3c-13-2-26-4-39-4zm3 38 31 3 9 2-5 12h-2c-6 2-14 4-21 8l-6-12-6-13z"/></svg>