<svg xmlns="http://www.w3.org/2000/svg" width="1024" height="1024" viewBox="0 0 10240 10240"><path d="m2126 3173 5562 189 469 3683-5812-971z"/><path fill="#95cd3f" d="M2134 1512c-166-5-295 120-234 255 21 45 98 125 211 216 171 138 460 395 583 519 123 123 187 207 208 271 17 49 16 64-1 94-40 64-146 86-347 71-63-5-131-12-153-16-109-22-358-45-467-45h-117l4 17c30 137 48 210 82 345 99 384 107 477 46 539-74 77-337 103-517 52a688 688 0 0 1-317-180c-83-79-150-120-393-243-286-145-472-192-584-150-119 45-172 164-115 254 47 75 159 131 523 262 529 190 937 385 1074 513 88 83 82 119-43 242-83 82-110 134-116 219-2 35 1 136 8 225a1072 1072 0 0 1-28 407c-58 179-199 256-505 275-337 20-396 27-473 53-101 34-159 90-168 163-14 108 70 219 214 285 57 26 134 31 194 14 23-7 62-16 88-21 25-4 52-14 61-22s26-15 37-15 31-6 43-15c12-8 38-17 58-20s49-13 64-23c14-9 33-18 42-18s19-3 23-7 26-10 49-15 51-14 61-21c11-7 48-17 83-22 52-8 68-14 90-33 20-18 33-24 56-24 17 0 45-8 63-17 29-15 46-17 152-20 137-3 188 7 309 64 127 59 323 188 396 259 100 97 115 179 63 340-31 97-47 152-43 156l151 79c82 41 170 87 196 103 43 26 109 90 109 105 0 4 15 14 33 23 44 23 127 27 218 11 103-17 203-16 257 5 52 20 110 72 136 124 61 126 38 226-85 357-62 66-77 88-99 142-31 76-19 160 32 220 26 32 89 72 145 93 58 21 231 39 258 26 10-5 32-11 50-12 19-2 41-11 50-20s22-16 29-16c25 0 121-127 121-160 0-5 11-35 23-68 23-58 25-61 64-80 50-25 108-26 237-5 102 17 283 20 424 7 192-17 219-18 273-3 131 35 193 92 233 216 20 60 34 152 54 360 6 65 17 146 24 179 34 177 120 302 228 334 97 30 187 8 256-62 52-53 65-96 58-193-5-73-23-128-100-300-71-157-89-211-93-284-4-53-3-66 12-95 23-46 67-81 116-90 22-5 44-12 50-17 22-18 234 10 380 50 353 99 376 104 420 104 14 0 27-3 27-6l-20-93c-45-208-50-285-20-329 21-31 72-72 104-82 17-6 40-18 51-26 16-12 34-15 91-15 70-2 73-1 119 27 31 19 79 63 141 130 53 57 101 101 110 103 19 2 70-51 118-121a558 558 0 0 1 159-145c3 0 17-5 28-11 13-6 32-12 42-12 12 0 25-5 30-11 8-9 29-12 102-12 116 0 216 18 402 69 124 35 152 40 232 43l92 4 42-34c34-27 44-40 56-74 13-39 13-45 1-95-20-88-81-193-206-352-128-163-148-258-67-320 19-14 40-26 46-26s20-7 30-16c17-13 32-15 99-15a655 655 0 0 1 262 50 6314 6314 0 0 1 893 387c162 89 192 99 305 102 76 3 99 1 115-8 10-7 33-19 51-27 38-19 110-97 131-142 30-63 19-115-39-184-67-81-115-103-330-154-197-46-275-65-348-86-86-25-367-116-412-133-14-6-38-13-53-18-108-30-369-132-429-168-77-47-104-119-80-213 16-59 39-93 126-181 103-105 104-135 10-228-33-32-67-74-76-91-19-37-22-96-7-144 15-51 115-135 162-135 10 0 21-3 23-8 7-11 99-9 173 3l106 16a1367 1367 0 0 0 349 30c174 0 177 0 195-18 34-31 45-155 24-254-23-110-70-175-149-204-51-19-126-18-293 2-175 21-439 44-525 44-67 0-105-10-134-35-37-31-36-49 2-286 19-115 34-175 54-213 20-41 56-72 91-81 12-3 31-10 42-16 10-6 40-10 65-10 34-1 51-5 64-16 37-31 1-60-99-79-59-11-81-16-209-46l-141-34c-171-40-205-49-243-63a438 438 0 0 1-222-199c0-11 38-52 49-52 5 0 27-15 49-34s44-34 49-34c17-1 162-135 178-165 44-76 0-169-107-225-103-55-256-28-382 68-48 37-55 41-97 50-45 10-190-58-306-142-199-145-262-204-300-277-14-26-26-63-28-86-4-33-13-50-42-91-82-111-86-118-86-144 0-20 7-31 31-54 38-35 59-47 81-48 9 0 19-4 22-8 2-4 10-7 18-7s29-13 47-27c19-15 42-27 54-27 10 0 26-7 34-16 16-17 49-33 88-41 14-3 34-13 45-22 10-9 36-22 57-27 22-5 48-18 61-32 13-12 28-22 34-22 5 0 18-7 29-15 14-12 31-16 64-16 51 0 48 3 81-85 17-47 21-68 21-128 0-65-2-77-21-113-51-96-132-147-269-166a460 460 0 0 0-402 109c-42 39-70 74-183 225a758 758 0 0 1-156 165c-63 44-199 64-320 48-37-6-137-13-221-16-178-7-193-12-328-91-111-65-120-70-134-70-24 0-31 23-38 111-7 98-22 134-73 179a733 733 0 0 1-375 130c-102 0-235-49-362-132-75-49-120-92-216-207-79-96-120-135-161-155-125-62-329-33-383 54-15 23-62 157-62 174 0 3-14 42-31 84-56 139-113 221-199 278a446 446 0 0 1-384 53c-129-45-290-159-440-315-58-59-431-476-475-531-32-38-103-98-152-126a377 377 0 0 0-146-38zm1714 1802a1475 1474 0 0 1 1360 903 1475 1474 0 0 1 1116-510 1475 1474 0 0 1 1475 1474 1475 1474 0 0 1-1475 1474 1475 1474 0 0 1-1358-906 1475 1474 0 0 1-1118 513 1475 1474 0 0 1-1476-1474 1475 1474 0 0 1 1476-1474Z"/><path fill="#fff" d="M3889 3362a1316 1297 0 0 0-1317 1297 1316 1297 0 0 0 1317 1297 1316 1297 0 0 0 992-446 1492 1492 0 0 1 266-1228 1316 1297 0 0 0-1258-920Zm-635 1379a417 417 0 0 1 417 417 417 417 0 0 1-417 417 417 417 0 0 1-417-417 417 417 0 0 1 417-417z"/><path fill="#fff" d="M6234 3789a1305 1308 0 0 0-1305 1308 1305 1308 0 0 0 1305 1308 1305 1308 0 0 0 1305-1308 1305 1308 0 0 0-1305-1308Zm443 490a526 512 0 0 1 526 512 526 512 0 0 1-526 512 526 512 0 0 1-525-512 526 512 0 0 1 525-512z"/></svg>