<svg xmlns="http://www.w3.org/2000/svg" width="2428" height="2428" viewBox="0 0 24280 24280"><circle cx="12140" cy="12140" r="12140" fill="#1e1c1f"/><path fill="#fff" d="m2792 14798 1325-453 355 1039-290 99-228-668-746 255 237 693-289 99zm650 163 280-96 210 615-280 96zm-201 1124 1038 142-250 131 460-909 209 394-303 586-91-167 654 72 200 378-996-137 247-131-473 952-213-403 325-604 85 160-680-65zm851 1528 1113-849 389 509q116 152 151 300t-13 280q-46 131-173 228-126 96-264 106t-274-63q-133-72-249-224l-255-334 243 35-427 327zm635 14 38-250 240 314q75 99 155 114 80 16 156-42 78-59 84-141 6-81-69-179l-240-315 251 29zm383 1253 963-1016 797 755-211 222-512-485-542 571 531 504-211 222zm650-158 204-214 472 447-204 215zm470 1178 787-1158 518 352q253 172 310 379 60 208-75 406-89 131-217 184-127 52-278 25-148-28-306-136l-348-236 239-39-302 445zm716 486-1-617 349 237 3 619zm-109-674-44-250 328 223q102 70 182 59 82-10 136-89 55-81 34-161-19-78-122-148l-327-223 248-51zm787 1069 632-1249 354 179-633 1249zm761 377 476-1317 1032 374-104 287-664-240-268 741 689 249-104 288zm533-405 101-278 611 221-101 278zm901 895 246-1379 321 58 597 1053-152-27 164-918 382 68-246 1379-321-58-597-1053 152 27-164 918zm2461 295q-166 0-308-52-140-54-244-152-102-98-160-230-58-134-58-294t58-292q58-134 160-232 104-98 244-150 142-54 308-54 194 0 346 68 154 67 256 195l-252 229q-68-80-150-122-80-42-180-42-86 0-158 28t-124 82q-50 52-80 126-28 74-28 164t28 164q30 74 80 128 52 52 124 80t158 28q100 0 180-42 82-42 150-122l252 227q-102 126-256 197-152 68-346 68zm932-70-227-1382 1083-178 50 302-697 115 128 777 723-119 49 302zm268-614-48-292 641-106 48 292z"/><path fill="#fefefe" d="M12020 1210c-57 2-97 20-106 56-11 44 3 129 30 182 33 64 32 75-1 102-21 16-27 31-31 73-5 65 19 131 108 292l60 110-3 128c-2 126-2 129 23 149 22 18 36 20 129 16 93-3 105-6 122-26l18-23 88 17c91 17 185 13 210-8 10-8 13-47 13-152 0-196-44-405-114-544-29-58-49-72-100-72-20 0-36-3-36-6l11-49c14-56 4-74-70-124a664 664 0 0 0-351-121zm-358 10c-30 0-191 54-252 85-55 28-126 98-135 134s-31 58-71 71c-29 10-39 23-77 103a897 897 0 0 0-107 425c0 61 5 92 17 113 16 27 16 32-7 105-24 76-24 76-8 173 24 139 61 232 118 294 33 37 49 64 53 91 16 101 183 265 327 322 45 18 59 29 75 62 28 57 55 84 181 178 62 46 134 104 162 129 54 49 87 65 133 65 37 0 43 14 29 74-6 30-7 53-1 64 5 10 17 56 26 101 15 71 16 95 6 160-19 125-21 131-66 185-62 77-66 88-67 191-1 87 1 95 25 124 28 34 27 43-8 111-15 29-22 171-9 204 8 20 94 22 172 4 55-13 112-57 154-119 15-23 17-23 45-8 35 20 64 12 112-34 94-89 181-246 251-454 31-91 30-139-4-190-26-39-27-42-12-71 9-17 20-34 26-37 17-10 11-159-11-288-25-149-48-225-105-339-82-166-111-197-187-208-36-4-42-9-47-35-11-52-47-109-87-138l-153-113c-63-47-153-111-200-141a775 775 0 0 1-216-184c-22-28-60-63-86-80-27-16-48-33-48-38a4036 4036 0 0 0 31-223c8-82 20-141 46-213 26-75 36-122 40-190 4-83 3-94-21-138l-26-48 22-42c17-33 22-59 23-125 0-91-12-112-63-112zm1801 80c-19 0-35 6-46 18-33 37-63 204-47 260 11 36 10 44-22 113-78 166-47 229 112 226 57-2 84 3 110 17 19 10 51 22 70 26 74 16 76 15 99-52 15-43 21-87 21-145 0-65 5-96 24-141 41-101 61-189 48-218-22-47-116-68-188-42-28 10-36 9-59-8-49-35-91-53-122-54zm606 127c-41 0-57 15-78 58-32 64-42 184-17 204 25 21 19 55-13 74-20 12-35 34-51 78-22 63-62 226-74 309-4 25-13 77-21 115-8 39-24 124-35 190-12 66-28 154-37 195-40 197-44 227-38 275 10 75 8 85-18 114-31 33-36 47-52 151-13 81-21 122-80 395-53 247-57 296-24 331l21 23-34 40c-34 40-68 130-87 231l-36 175c-49 229-75 370-75 403 0 28 7 37 48 63 45 29 51 30 127 25 44-2 95-8 113-12 29-5 38-2 65 24 38 37 74 52 147 62l60 9c14 3 31-20 54-69 29-61 31-95 15-167-11-46-10-52 14-89 15-21 33-70 42-109 36-162 97-464 120-590 8-44 19-96 25-115 15-52 12-176-4-209-14-27-14-29 24-66 44-43 52-70 115-405 28-148 47-238 60-291 22-82 19-144-7-179l-22-30 21-28c38-52 60-107 87-217l41-165c58-227 69-327 40-360-18-20-18-21 7-48 36-38 45-60 69-158l20-87-28-28c-15-15-49-34-75-40-40-11-58-10-123 5l-77 18-31-30c-43-40-84-60-148-70-20-3-37-5-50-5zm-3985 24c-18 0-45 6-87 15-52 12-81 24-103 46-27 25-35 28-52 19-39-21-146-13-201 14-71 36-80 68-56 201 18 97 36 133 75 146 12 4 11 12-3 49-20 52-21 86-6 126 10 28 18 63 84 383 22 106 48 199 65 235 22 48 29 80 34 160 6 100 53 346 109 570l37 160c58 261 58 258 95 291 19 17 35 34 35 38s-10 20-22 36l-21 29 18 88 30 158c33 178 66 274 116 337 21 25 21 28 6 72-14 42-14 55-1 124 24 126 45 192 68 207 29 21 138 20 179-1 18-9 47-30 66-46 24-21 40-28 55-23 52 15 138 18 164 4 78-38 91-77 67-189l-30-153c-8-43-16-81-19-85-2-4-12-48-20-97-13-75-21-94-47-121l-32-33-3-133c-2-125-23-259-63-403-17-64-50-206-57-250-12-79-44-171-80-230-34-56-36-62-23-90 23-55 20-88-42-365-18-82-55-233-92-375-5-22-20-54-33-71-28-38-29-46-20-114 6-42 2-86-19-189-35-183-88-396-121-490-14-37-20-51-50-50zm4762 128c-20 0-41 3-59 10-30 12-36 34-47 168-6 82-13 111-33 146-27 46-56 198-44 230 12 33 57 51 131 52 51 2 88 9 131 27 75 32 96 33 128 7 36-27 50-86 42-173-6-68-5-74 31-146 39-81 62-179 50-223-9-39-46-51-125-39-61 8-66 8-86-14-26-28-73-45-119-45zm1226 391c-33 0-42 13-127 188-48 98-68 153-77 205-10 63-16 76-49 108-23 21-54 70-77 120l-102 219c-34 74-66 139-71 144-12 13-11 77 0 95 6 10-7 30-48 70-44 43-69 81-109 164-29 59-52 109-52 112s-32 71-71 152c-110 228-126 266-140 329-10 48-22 69-65 116-55 61-83 113-209 393-67 148-78 180-82 244-6 71-7 74-37 86-17 7-39 22-48 32-24 27-146 287-153 326-6 33-4 37 32 60 57 37 108 50 169 43 53-6 54-6 70 26 24 49 90 96 174 125 38 13 85 10 106-8 13-11 115-213 154-303 11-27 27-90 35-139 14-85 17-91 54-123 31-27 121-160 121-179 0-3 20-48 45-101l45-99c0-2 35-80 79-172l99-213c27-57 43-129 35-159-4-17 5-32 43-70 32-31 64-79 91-132l162-329c118-240 151-329 151-412 0-33 5-41 45-68 47-33 68-66 120-190 18-41 44-100 60-130 34-67 115-260 115-275 0-42-131-105-218-105-45 0-50-3-73-37a383 383 0 0 0-197-113zm-7910 109c-85 1-132 6-185 21-123 36-207 71-218 91-24 45 30 176 102 246 38 38 42 47 41 85-3 59 22 137 56 177l28 34 81-18c45-10 93-15 106-11 39 9 157 108 213 177 89 109 220 338 253 440 14 42 73 115 101 124 16 5 20 15 20 54 0 64 36 181 103 331 31 69 83 194 116 278 34 85 74 171 91 192 33 41 36 60 18 93-8 15-11 63-9 145 2 109 0 128-19 167-13 26-39 58-64 75-56 40-80 82-73 126 7 43 43 94 66 94 9 0 25 6 34 13 14 10 15 18 6 51s-7 50 21 135c38 111 45 128 73 159 26 28 32 27 116-2 193-67 462-387 424-502-8-23-3-50 24-131 40-124 41-169 9-358-50-283-149-584-206-625a78 78 0 0 1-34-53c-21-150-29-172-199-542-109-236-140-289-184-313-35-19-43-30-48-60-12-67-27-106-72-182-146-248-476-512-637-511zm-622 222c-20 0-45 5-78 14-57 17-107 55-118 88-10 32-22 37-101 37-115 0-222 51-225 106-3 48 31 142 105 287 71 138 86 161 117 177 51 26 63 43 55 80-9 43 9 114 71 266 29 72 70 176 89 230 40 110 66 155 124 211 32 32 39 46 43 88 3 33 30 107 78 215 40 91 106 244 146 340 91 214 95 222 131 239 38 19 39 22 53 115 13 85 44 168 174 466l118 270c23 52 53 110 66 129 24 32 27 33 73 28 64-8 152-52 193-97 31-34 38-37 104-43 50-4 81-13 109-30 55-36 85-67 79-82a366 366 0 0 0-66-145c-22-30-45-72-50-95-23-95-88-255-252-619-22-49-53-131-69-182-30-92-62-137-125-172-16-9-19-23-20-84-1-60-6-83-31-133-17-33-45-94-62-135l-46-105c-25-53-79-177-139-315-27-64-38-78-71-95l-44-22c-2-1-5-33-7-72-5-83-39-184-129-388-35-78-66-152-71-165-14-45-56-100-83-109-27-10-29-13-33-87-5-74-33-155-68-197-8-9-21-14-40-14zm9233 9c-36 2-53 28-89 106l-44 94 20 40c11 21 20 43 20 48s-19 15-42 21c-24 6-48 14-54 18-21 15-65 118-67 156-1 34 5 44 56 93 59 56 87 106 87 153 0 14-12 69-26 121-15 58-24 110-21 132 5 34 1 40-40 74-24 20-58 62-76 93-17 31-57 81-88 113-66 64-118 82-203 68-77-12-96-2-132 66-18 32-38 79-45 102-10 38-10 48 5 73l17 28-42 11c-39 11-43 15-84 104-66 140-66 139-12 194 77 81 105 162 102 300-1 64-5 78-28 107-15 19-55 92-89 162-64 131-70 160-56 263 2 21-2 26-24 28-14 2-32 10-38 18-7 8-19 14-26 14s-20 13-28 28c-38 74-126 378-126 436 0 46 109 106 194 106 49 0 57 3 71 28 27 44 134 106 220 125l27 6c21 3 59-60 77-126 9-33 8-50-2-81l-14-40 46-43c35-33 53-62 74-119 16-41 56-138 90-215 50-112 62-150 62-192 0-53 23-93 52-93 15 0 21-13 69-149 31-89 32-96 17-124-14-29-14-30 21-66 31-32 36-43 36-84 0-74-39-213-74-265-17-26-47-56-66-68-39-25-80-63-80-75 0-22 41-28 122-18 45 6 99 7 118 4 143-27 404-284 440-434 10-44 10-57-4-92-20-49-9-69 34-69s100-71 127-156c35-110 60-232 68-326 7-92 0-122-34-133-28-9-33-31-15-76 9-22 14-52 11-68-8-37-79-145-136-204-77-82-263-199-335-212-18-3-31-5-43-5zm1613 927c-36-2-73 21-119 75-56 66-90 137-81 172 5 21 0 27-33 42-58 28-128 105-240 264-56 80-132 183-167 229-52 67-66 93-68 125-3 34-8 43-34 56-56 28-70 44-202 228-72 101-186 255-254 343-145 188-177 242-198 329-13 50-21 66-36 68-60 9-94 36-151 121-32 47-87 122-122 165a493 493 0 0 0-120 224c-5 42-9 47-37 53-44 8-46 11-113 99-119 155-125 180-61 242 52 49 110 78 154 78 33 0 39 5 76 64 39 62 73 93 115 108 26 9 74 1 93-14 8-7 42-49 75-93s95-123 138-176c87-108 119-164 119-209 0-18 8-37 21-47 93-77 219-218 315-350 252-351 304-432 304-475 0-20 10-32 46-53 51-30 108-99 328-399 99-134 149-211 156-240 14-56 32-89 55-101 54-28 82-56 153-154l171-231c85-113 141-206 141-236 0-6-28-33-61-59-50-39-71-49-110-53-47-4-50-7-68-47a389 389 0 0 0-170-145l-15-3zm-6842 393c-71 0-137 22-180 62-21 19-22 19-88-18-65-35-70-36-143-32-56 4-80 10-89 22-34 47-24 269 14 326 28 41 30 54 14 84-19 39-11 112 26 236 72 239 166 354 301 369 53 6 55 7 68 47 13 38 18 42 71 57 31 9 68 18 82 21 14 2 56 4 93 5 59 1 71-2 92-23 13-13 27-36 31-51 10-39-15-111-58-168-21-28-38-55-38-60s13-20 30-34c36-29 58-100 61-189 2-62-4-84-23-84-28 0-87-63-113-122-15-35-39-73-52-86-17-15-23-28-18-40 14-34 28-199 21-255l-7-56-46-7c-16-2-33-4-49-4zm7871 370c-45 0-171 112-206 183-24 49-47 69-107 99-112 54-141 124-82 192 17 19 51 42 75 52 37 14 47 23 61 60 9 24 32 59 51 79 20 21 44 35 58 35 29 0 137-101 178-167 17-27 42-49 73-65 68-33 164-124 164-154 0-46-79-144-116-144-38 0-61-23-73-73-13-58-44-97-76-97zm398 450c-27 0-102 50-140 94-27 30-33 45-33 82 0 27-5 46-12 48-136 35-208 84-349 232a5859 5859 0 0 1-348 344c-250 230-243 223-250 265-6 37-9 40-41 43-42 4-47 8-305 255l-277 264c-64 60-68 67-68 108 0 40-3 45-27 51-72 18-134 64-336 253-117 109-236 224-266 255-51 54-53 60-48 98 3 23 14 53 25 67 25 35 109 90 149 97 41 8 47 16 68 89 12 44 28 71 60 102 37 38 48 43 86 43 61 0 101-30 153-115 31-50 53-75 81-90 22-11 125-101 230-200l321-302c106-99 136-133 164-189 38-73 45-80 103-89 32-5 70-37 259-218l287-274c63-59 65-64 66-110 0-45 1-48 35-58 74-22 149-80 385-298 135-125 163-156 177-195 15-44 20-48 72-67 61-22 160-110 170-152 8-29-11-66-61-121-32-35-47-44-92-52-62-12-67-16-76-77-10-69-111-183-162-183Zm539 565c-9-1-17 2-31 10-34 17-92 83-125 141-17 30-33 42-79 60-43 17-73 38-113 81-30 32-57 69-61 82-9 35 22 84 74 117 25 16 57 47 70 69 14 22 39 55 56 73 25 25 39 32 70 32 32 0 46-7 76-38 20-21 50-60 66-87 22-37 44-57 85-79 30-15 73-41 95-58 43-31 105-103 105-122 0-25-79-89-117-95-34-6-38-10-44-42-8-55-41-102-87-127-20-11-30-16-40-17zm559 1282c-180-5-319 28-419 100-29 21-59 33-98 38-60 7-153 39-237 81-241 121-655 377-675 417-10 21-21 27-45 27-43 0-155 41-214 78a3810 3810 0 0 0-339 224c-17 16-42 52-54 79-21 44-29 51-67 60-78 20-214 166-284 306-33 65-39 87-39 140 0 51-3 64-19 73-11 5-29 25-40 44-42 68-17 283 47 399 26 46 29 48 62 44 40-5 150-71 150-90 0-26 20-39 84-53 43-10 97-34 153-68l87-52 30-74c30-75 58-107 227-265 33-31 58-64 64-85 8-29 15-35 40-38 55-4 109-24 160-57 28-18 95-56 150-85 55-28 111-60 125-69 14-10 54-34 90-53a45764 45764 0 0 0 235-129c11-5 92-51 180-102 136-79 163-98 177-129 19-40 32-46 98-46 25 0 70-10 100-21 109-42 211-60 345-64 147-4 171-13 251-94 33-34 54-46 105-59 98-24 219-99 219-136 0-59-85-156-174-199-33-16-72-40-86-53-37-35-94-56-195-71-69-10-134-16-194-18zm747 537-15 2c-39 9-146 86-162 117-10 19-23 26-64 31-89 10-246 102-260 151-26 86-67 154-124 201-101 85-189 179-199 215-9 33-12 34-71 41-54 6-161 51-208 88-5 4-194 110-420 235-225 125-418 235-429 245-10 10-21 33-25 51l-7 34-69-3c-59-3-83 1-150 27a663 663 0 0 1-306 49c-111-3-117-2-170 26-78 42-115 73-129 106-11 28-17 30-62 30-97 0-198 76-198 148 0 33 8 45 70 104 41 38 84 69 101 73 16 4 49 23 72 43 57 50 104 69 222 91 137 26 194 25 346-5 125-24 134-27 195-74 56-43 70-49 131-56a983 983 0 0 0 335-123c31-17 63-31 71-31s31-13 52-30c21-16 42-30 47-30s24-11 42-25 35-25 38-25c17 0 258-170 306-216 46-43 65-55 102-60 25-4 50-10 55-14 6-5 28-11 50-15s54-17 70-30c17-12 59-36 95-54 84-42 75-37 162-103 82-62 115-97 149-157 18-32 29-41 60-46 54-9 104-49 208-166 112-126 136-172 136-258 1-57 3-66 29-88s29-31 33-106c8-138-29-324-73-372-14-15-23-21-36-21zm-956 2730-31 1c-77 11-175 37-191 50-32 28-79 38-180 40-131 2-206 23-221 63a369 369 0 0 0 41 256c39 82 40 89 31 139-10 55 0 133 33 252 21 77 20 89-6 119-23 26-45 32-253 73-44 8-92 21-107 29s-45 14-68 14c-40 0-217 31-291 50-85 23-93 89-29 213 40 76 42 82 30 118-15 45-8 124 18 202l17 52 54 3c30 2 82-4 115-12 34-8 88-20 121-26 43-9 67-20 86-42 29-31 38-32 154-28 39 2 116-3 171-10 56-7 109-10 118-7 8 3 22 32 31 64 10 33 27 68 41 81 14 12 33 22 42 22 20 0 108-28 137-43l45-24c16-8 62-13 126-13 89 0 105-3 135-23 33-23 34-24 30-83-9-124-12-117 44-136 28-9 64-17 82-17 17-1 35-5 38-11 3-5 18-10 33-10s59-7 97-15c39-8 87-15 107-15 76 0 138-21 184-61 25-21 49-39 53-39 5 0 28 7 52 15 47 17 103 13 179-12 64-21 246-53 302-53 26 0 50-4 53-10 3-5 21-10 39-10 43 0 90-17 147-52 40-24 57-28 120-28 71 0 278-28 384-52 111-24 141-37 153-63 18-38 15-63-9-76-40-21-153-49-199-49-53 0-181 33-222 58-23 13-32 14-46 4-65-46-121-65-246-83a863 863 0 0 0-285-10c-26 5-69 5-100 0-177-28-367-49-439-49-74 0-218 21-442 64-41 8-105 17-141 21-64 7-66 6-72-16-4-13-7-37-7-52 0-19-11-38-37-62-36-33-36-34-20-59 10-15 17-45 17-75 0-45 3-51 24-57 23-6 94 2 262 27 75 11 87 10 150-9 66-20 69-20 99-3 73 44 545 82 575 46 14-17 71-20 86-5 19 19 202 51 354 60 215 14 267 4 253-51-8-29 21-33 90-15l105 27c44 11 52 32 14 37-11 2-26 9-32 17-17 20 16 27 120 23l85-3 3-35c5-46-13-106-45-153-25-36-26-40-14-105 14-80 3-123-36-141-87-40-396-67-473-41-37 12-42 11-77-12-56-37-150-58-308-69-77-5-179-16-228-24-119-20-269-20-309 1-30 15-33 15-96-16-51-25-85-34-161-41l-270-24c-72-7-146-11-189-11zm1542 1771c-407 0-408 0-233 149 126 108 187 147 244 157 60 10 205 10 250-1 51-11 156-13 266-4 94 7 111 0 89-39-13-25-89-86-165-134-32-20-57-45-68-68-9-19-29-41-44-48-20-8-118-12-339-12zm609 497-172 3-30 29-30 29-58-24c-56-23-68-24-359-27l-301-3-53 36c-28 19-56 35-61 35s-33-12-62-27l-52-28-348-3-349-3-50 32-51 33-81-30-81-29-269 3c-276 3-296 5-328 45l-16 21-43-29c-42-30-44-30-194-33-144-3-330 10-344 23-3 4-6 53-6 109 0 83 4 110 20 139 18 34 18 39 3 64-22 39-31 122-23 209 7 82 6 80 100 94 52 8 741 3 810-6 22-3 49-13 60-23 32-30 68-33 117-11 41 18 67 20 480 20 419 0 439-1 473-20 45-25 61-25 145 1 64 19 87 20 472 17l405-3 51-32 52-32 56 29c50 27 65 30 150 30 51 0 116-5 144-11 41-9 51-15 56-36 10-37-4-162-23-211-15-40-15-47 0-102 11-37 17-97 17-160 0-100 0-101-27-111-17-6-97-9-200-7zm-1620 948c-108 2-215 58-263 156a406 406 0 0 0 29 361c32 44 108 93 161 104 100 20 196 1 262-50 49-38 107-127 92-141-11-11-90-40-125-47-22-4-28 0-39 26-30 73-103 100-167 61-47-28-63-67-63-152 1-118 46-181 130-181 34 0 48 7 80 38 35 34 42 37 77 31 47-9 103-26 103-32 0-18-35-66-73-101-56-52-130-75-204-73zm-1703 10v610l253-2 252-3 3-66 3-66-157-6-159-9c-1-2-5-22-7-44-5-39-4-42 29-58 27-13 60-17 140-15 112 2 129-5 118-46-2-11-5-30-5-42 0-23-2-23-129-23-139 0-161-7-161-53s8-48 168-48h152v-129h-250zm750 0v610l233-2 232-3 3-72 3-73h-145c-143 0-146 0-151-22-3-13-4-34-3-48v-207l-2-183h-85zm2310 0v599h256c225 0 255-2 250-15-3-9-6-36-6-60v-44h-147c-82 0-154-4-161-9-9-5-12-26-10-67l3-59 142-3 141-3v-55l-1-55-30 7c-16 3-81 3-144-1l-114-7 3-52 3-51 158-3 157-3v-119h-250zm-835 5-3 290c-1 159 0 295 3 302 6 17 146 18 163 1 8-8 12-48 12-114 0-69 4-105 13-111 14-12 170-25 192-17 12 5 15 29 15 125v119h29l90 6 62 7-3-304-3-304h-170l-3 108-3 109-107-7c-59-4-109-9-110-10-2-2-5-48-5-102l-2-98h-85z"/><path fill="#95cd3f" d="M8275 7211c-217-6-386 158-306 335 27 59 128 163 277 283 224 181 602 518 764 680 161 162 245 271 273 355 22 64 21 84-2 123-52 85-191 113-455 93-82-6-172-15-200-21-143-28-469-59-613-59h-153l5 23c40 180 63 275 108 452 130 503 140 625 60 707-97 100-442 134-677 68a902 902 0 0 1-416-236c-108-104-196-158-515-319-375-190-618-252-765-196-156 59-226 215-151 333 62 98 208 171 686 343 693 249 1227 505 1407 672 116 109 107 157-56 318-109 107-145 175-152 287-3 46 1 178 10 295a1406 1406 0 0 1-36 533c-77 235-261 335-663 360-441 27-518 36-620 70-132 44-208 118-220 214-18 141 92 286 281 373 74 34 176 41 254 18 30-9 82-21 115-27 33-5 69-18 81-29 11-10 33-19 48-19s41-9 56-20c16-11 50-23 77-27 26-3 64-17 83-30 19-12 44-23 55-23 12 0 25-4 30-9 6-5 35-14 65-20 30-7 66-19 80-28s62-22 108-29c68-10 89-18 118-43 26-23 44-31 74-31 22 0 59-10 82-22 38-20 61-23 199-26 180-5 247 9 405 83 167 78 424 246 520 340 130 127 150 234 82 445a977 977 0 0 0-56 205l198 103c107 54 223 115 257 135 56 34 143 118 143 138 0 5 19 18 43 30 57 30 166 36 285 15 135-23 266-21 337 6 69 26 144 95 178 163 81 165 50 296-111 468a501 501 0 0 0-130 186c-40 99-24 209 42 288 35 42 117 94 190 122 76 28 303 51 338 34 13-6 43-14 66-16 25-3 54-14 66-26s29-21 38-21c33 0 158-166 158-210 0-6 14-46 30-89 30-76 33-80 84-105 66-33 142-34 311-6 133 22 371 26 555 9 252-22 288-23 358-4 172 46 253 121 306 283 26 79 44 200 71 472 8 85 22 191 31 235 45 232 157 395 299 438 127 39 245 10 335-82 69-69 86-126 77-253-7-95-31-168-132-393-93-206-116-276-122-372-5-70-3-87 16-125 30-60 88-106 152-118 29-6 58-15 66-22 29-24 306 13 498 66 462 129 492 136 550 136 19 0 35-4 35-8s-11-59-25-122c-59-272-66-374-27-431 28-41 94-94 137-108 22-8 52-23 66-34 22-15 45-19 120-20 92-2 95-1 156 36 40 25 103 83 185 170 69 75 132 133 144 135 24 3 91-66 154-158a731 731 0 0 1 208-190c5 0 23-7 38-15 16-8 41-15 55-15 15 0 32-7 39-15 10-12 38-15 134-15 151 0 282 23 526 90 163 46 199 52 305 56l120 5 55-44c45-35 58-53 73-97 17-51 17-59 2-125-26-115-106-253-270-461-168-214-194-338-88-419 25-19 52-35 60-35s26-9 40-20c22-17 41-20 129-20 96 0 210 17 265 39l79 26a8275 8275 0 0 1 1170 507c213 118 252 131 400 135 99 3 130 1 150-11 14-9 44-25 67-36 50-25 144-126 172-186 39-82 25-150-51-241-88-106-151-135-433-201-258-61-360-86-455-113-113-33-482-152-540-174-19-8-51-18-70-24-141-39-484-173-562-221-101-61-137-155-105-278 21-78 51-123 165-238 135-137 136-177 13-299-43-42-88-96-100-119-24-49-28-126-9-189 20-67 151-177 212-177 14 0 28-4 31-10 9-14 129-12 226 4 46 8 109 17 139 21a1792 1792 0 0 0 457 39c229 0 233 0 257-23 44-41 59-203 31-333-30-144-92-230-195-268-67-25-166-24-385 3-229 28-575 57-688 57-87 0-137-13-175-45-49-41-48-65 3-375 24-151 44-229 70-280 27-53 73-94 119-106 16-4 41-13 55-20 14-8 53-14 86-14 44-1 66-6 83-20 49-41 2-79-129-104-77-15-106-21-274-61l-185-44c-224-52-269-64-319-82-65-24-130-66-195-128-50-47-96-111-96-133 0-15 50-68 65-68 6 0 35-20 64-45s58-45 64-45c22-1 212-176 234-216 57-99-1-221-140-295-136-72-336-37-501 89-63 49-73 54-128 66-58 13-249-76-400-186-261-190-344-267-394-363-18-34-34-83-37-113-5-43-16-66-54-119-108-146-113-155-113-189 0-26 9-41 41-71 49-46 77-62 106-63 12 0 25-5 28-10 3-6 14-10 24-10s38-16 62-35c25-19 55-35 70-35 14 0 34-9 45-21 21-23 64-43 115-54 19-4 45-17 59-29s48-28 75-35c29-7 63-24 80-42 17-16 37-29 44-29s24-9 38-20c19-15 41-20 84-20 67 0 63 4 106-112 23-61 28-89 28-168 0-85-3-101-28-148-66-126-173-192-352-218-218-31-388 16-527 144-55 51-91 96-240 294a993 993 0 0 1-204 217c-83 57-261 83-419 62-49-7-180-16-290-21-233-9-253-15-430-119-145-85-157-91-176-91-31 0-41 30-50 145-9 129-29 176-95 235a961 961 0 0 1-492 170c-134 0-308-64-474-173-98-64-157-121-283-271-104-126-157-177-212-204-163-81-431-43-502 71-19 31-81 206-81 229 0 4-18 54-40 110-73 182-149 289-261 364a584 584 0 0 1-504 69c-169-58-379-208-576-412-76-78-565-625-623-696a879 879 0 0 0-199-165 495 495 0 0 0-192-51zm2247 2362a1934 1932 0 0 1 1783 1185 1934 1932 0 0 1 1463-670 1934 1932 0 0 1 1933 1932 1934 1932 0 0 1-1933 1932 1934 1932 0 0 1-1781-1187 1934 1932 0 0 1-1465 672 1934 1932 0 0 1-1934-1932 1934 1932 0 0 1 1934-1932z"/><path fill="#fff" d="M10575 9637a1725 1700 0 0 0-1725 1700 1725 1700 0 0 0 1725 1699 1725 1700 0 0 0 1302-585c-31-138-47-279-47-421 0-424 143-847 395-1187a1725 1700 0 0 0-1650-1206Zm-831 1807a546 546 0 0 1 546 546 546 546 0 0 1-546 546 546 546 0 0 1-547-546 546 546 0 0 1 547-546z"/><path fill="#fff" d="M13650 10196a1710 1714 0 0 0-1710 1714 1710 1714 0 0 0 1710 1714 1710 1714 0 0 0 1710-1714 1710 1714 0 0 0-1710-1714Zm581 643a689 671 0 0 1 688 670 689 671 0 0 1-688 671 689 671 0 0 1-689-671 689 671 0 0 1 689-670z"/></svg>